<svg xmlns="http://www.w3.org/2000/svg" width="24" height="24" fill="none"><path fill="#6B6F80" fill-rule="evenodd" d="M9 10a1.999 1.999 0 1 1 0-4 1.999 1.999 0 1 1 0 4m5.997 8c-.016-.04-.07-.131-.228-.277-.295-.273-.8-.58-1.511-.864C11.832 16.29 10.085 16 9 16s-2.832.288-4.258.86c-.71.284-1.216.59-1.511.863-.158.146-.212.237-.228.277zM5 8c0 2.21 1.79 4 4 4s4-1.79 4-4-1.79-4-4-4-4 1.79-4 4m13 0v2h-2c-.55 0-1 .45-1 1s.45 1 1 1h2v2c0 .55.45 1 1 1s1-.45 1-1v-2h2c.55 0 1-.45 1-1s-.45-1-1-1h-2V8c0-.55-.45-1-1-1s-1 .45-1 1m-1 10c0-2.66-5.33-4-8-4s-8 1.34-8 4v1c0 .55.45 1 1 1h14c.55 0 1-.45 1-1z" clip-rule="evenodd"/></svg>