<svg xmlns="http://www.w3.org/2000/svg" width="24" height="24" fill="none"><path fill="#6B6F80" d="M4.5 11.75a1.5 1.5 0 0 0 1.5-1.5c0-.125-.031-.25-.062-.375l3.156-3.156c.125.031.25.031.406.031.188 0 .344-.031.531-.094L13 9.031v.219c0 .844.656 1.5 1.5 1.5a1.5 1.5 0 0 0 1.5-1.5c0-.062-.031-.125-.031-.219l2.969-2.375c.187.063.343.094.562.094a1.5 1.5 0 0 0 1.5-1.5c0-.812-.687-1.5-1.5-1.5a1.5 1.5 0 0 0-1.5 1.5v.25l-2.969 2.375c-.187-.062-.344-.125-.562-.125-.188 0-.344.063-.531.125L10.968 5.5c0-.094.032-.156.032-.25 0-.812-.687-1.5-1.5-1.5A1.5 1.5 0 0 0 8 5.25c0 .156 0 .281.031.406L4.875 8.813c-.125-.032-.25-.063-.375-.063a1.5 1.5 0 0 0-1.5 1.5c0 .844.656 1.5 1.5 1.5"/><path fill="#6B6F80" fill-rule="evenodd" d="M4.5 19.75a1 1 0 0 1-1-1v-3a1 1 0 1 1 2 0v3a1 1 0 0 1-1 1M9.5 19.75a1 1 0 0 1-1-1v-8a1 1 0 1 1 2 0v8a1 1 0 0 1-1 1M14.5 19.75a1 1 0 0 1-1-1v-4a1 1 0 1 1 2 0v4a1 1 0 0 1-1 1M19.5 19.75a1 1 0 0 1-1-1v-8a1 1 0 1 1 2 0v8a1 1 0 0 1-1 1" clip-rule="evenodd"/></svg>