<svg xmlns="http://www.w3.org/2000/svg" width="24" height="24" fill="none"><g clip-path="url(#a)"><path fill="#6B6F80" d="m19.039 11.114-7.481 7.482c-1.478 1.477-3.875 1.71-5.487.381a4 4 0 0 1-.29-5.918l8.74-8.74c.926-.926 2.432-1.103 3.443-.276a2.5 2.5 0 0 1 .191 3.713L10.73 15.18a1.003 1.003 0 0 1-1.414 0 1.003 1.003 0 0 1 0-1.414l6.187-6.187c.29-.29.29-.77 0-1.06a.756.756 0 0 0-1.06 0l-6.088 6.087c-.927.927-1.104 2.433-.276 3.444a2.5 2.5 0 0 0 3.712.191l7.305-7.304c1.477-1.478 1.71-3.875.381-5.488a3.993 3.993 0 0 0-5.918-.29l-8.676 8.677c-2.03 2.03-2.362 5.331-.53 7.545a5.505 5.505 0 0 0 8.145.395l7.602-7.6c.29-.29.29-.772 0-1.062a.756.756 0 0 0-1.061 0"/></g><defs><clipPath id="a"><path fill="#fff" d="M0 0h24v24H0z"/></clipPath></defs></svg>