<svg xmlns="http://www.w3.org/2000/svg" width="24" height="24" fill="none"><path fill="#6B6F80" fill-rule="evenodd" d="M13.17 2c.53 0 1.04.21 1.42.59l4.82 4.83c.38.37.59.88.59 1.41V20c0 1.1-.9 2-2 2H5.99C4.89 22 4 21.1 4 20V4c0-1.1.9-2 2-2zM13 3.5V8c0 .55.45 1 1 1h4.5zm-2.08 9.8c0 .38.292.624 1.2.86s1.88.624 1.88 1.76c0 .82-.62 1.272-1.4 1.42v.26a.6.6 0 1 1-1.2 0v-.268c-.6-.128-1.132-.456-1.36-1.012a.382.382 0 0 1 .356-.52h.112c.164 0 .3.112.36.268.132.336.472.572 1.132.572.884 0 1.08-.44 1.08-.716 0-.372-.2-.724-1.2-.964-1.116-.268-1.88-.728-1.88-1.652 0-.772.624-1.276 1.4-1.444V11.6a.6.6 0 1 1 1.2 0v.276c.624.152 1.016.544 1.184 1.016a.38.38 0 0 1-.36.508h-.12c-.168 0-.3-.12-.348-.28-.104-.344-.388-.56-.956-.56-.676 0-1.08.304-1.08.74" clip-rule="evenodd"/></svg>