<svg xmlns="http://www.w3.org/2000/svg" width="24" height="24" fill="none"><path fill="#6B6F80" d="M12 21a.97.97 0 0 1-.712-.288A.97.97 0 0 1 11 20v-6H7a.97.97 0 0 1-.713-.288A.97.97 0 0 1 6 13a.97.97 0 0 1 .287-.713A.97.97 0 0 1 7 12h3.725l-4.75-7.45q-.325-.5-.037-1.025A.95.95 0 0 1 6.825 3q.275 0 .5.125t.35.35L12 10.3l4.325-6.825q.125-.225.35-.35t.5-.125q.6 0 .887.525t-.037 1.025L13.275 12H17q.424 0 .712.287.288.288.288.713 0 .424-.288.712A.97.97 0 0 1 17 14h-4v6q0 .424-.287.712A.97.97 0 0 1 12 21"/></svg>