<svg xmlns="http://www.w3.org/2000/svg" width="24" height="24" fill="none"><path fill="#6B6F80" fill-rule="evenodd" d="M9 11V5H5v6zm0 8v-2H5v2zm10 0v-6h-4v6zM15 7h4V5h-4zm-5 6H4c-.55 0-1-.45-1-1V4c0-.55.45-1 1-1h6c.55 0 1 .45 1 1v8c0 .55-.45 1-1 1m0 8H4c-.55 0-1-.45-1-1v-4c0-.55.45-1 1-1h6c.55 0 1 .45 1 1v4c0 .55-.45 1-1 1m10 0h-6c-.55 0-1-.45-1-1v-8c0-.55.45-1 1-1h6c.55 0 1 .45 1 1v8c0 .55-.45 1-1 1M13 8V4c0-.55.45-1 1-1h6c.55 0 1 .45 1 1v4c0 .55-.45 1-1 1h-6c-.55 0-1-.45-1-1" clip-rule="evenodd"/></svg>