<svg xmlns="http://www.w3.org/2000/svg" width="24" height="24" fill="none"><path fill="#6B6F80" d="M2 20q-.824 0-1.412-.587A1.93 1.93 0 0 1 0 18h4q-.824 0-1.412-.587A1.93 1.93 0 0 1 2 16V5q0-.825.588-1.413A1.93 1.93 0 0 1 4 3h16q.825 0 1.413.587Q22 4.175 22 5v11q0 .825-.587 1.413A1.93 1.93 0 0 1 20 18h4q0 .825-.587 1.413A1.93 1.93 0 0 1 22 20zm18-4V5H4v11zm-8 3a.97.97 0 0 0 .713-.288A.97.97 0 0 0 13 18a.97.97 0 0 0-.287-.712A.97.97 0 0 0 12 17a.97.97 0 0 0-.712.288A.97.97 0 0 0 11 18q0 .424.288.712A.97.97 0 0 0 12 19m-8-3V5z"/></svg>