<svg xmlns="http://www.w3.org/2000/svg" width="24" height="24" fill="none"><path fill="#6B6F80" d="M12.902 13.33h-2.94l2.94-3.973z"/><path fill="#6B6F80" fill-rule="evenodd" d="M12 22c5.523 0 10-4.477 10-10S17.523 2 12 2 2 6.477 2 12s4.477 10 10 10m.902-7.14v1.272q0 .512.233.78.24.258.622.259.39 0 .622-.253.232-.26.232-.786V14.86h.417q.52 0 .78-.177.26-.185.26-.581 0-.486-.322-.63-.315-.143-.84-.143h-.295V8.04q0-1.19-1.039-1.19a.78.78 0 0 0-.553.218 5.5 5.5 0 0 0-.582.69l-3.623 4.848-.252.335a5 5 0 0 0-.199.287q-.096.143-.143.28a.8.8 0 0 0-.048.26q0 .505.321.8.329.293.978.293z" clip-rule="evenodd"/></svg>