<svg xmlns="http://www.w3.org/2000/svg" width="24" height="24" fill="none"><path fill="#6B6F80" fill-rule="evenodd" d="M16.59 4.03a.754.754 0 0 0-1.06 0 .756.756 0 0 0 0 1.06l1.58 1.58a2.53 2.53 0 0 0-1.11.832A2.46 2.46 0 0 0 15.502 9q0 .186.028.38.054.364.212.69.109.223.258.421c.26.344.606.622 1 .799a2.42 2.42 0 0 0 1.5.163q.258-.056.5-.163v7.21a1.003 1.003 0 0 1-1.11.994A1.004 1.004 0 0 1 17 18.5V14a2 2 0 0 0-.104-.634A2.015 2.015 0 0 0 15 12h-1V5c0-.521-.202-.998-.532-1.355A2 2 0 0 0 12 3H6c-1.1 0-2 .9-2 2v15c0 .55.45 1 1 1h8a1.004 1.004 0 0 0 1-1v-6.5h1.5v4.86q0 .07.004.14c.027.528.205 1.03.496 1.444.4.57 1.014.973 1.74 1.046a2.5 2.5 0 0 0 2.76-2.49V9a2.5 2.5 0 0 0-.384-1.335 2.5 2.5 0 0 0-.346-.435l.01-.01zm1.155 4.003a1 1 0 1 0 .755 1.832A1 1 0 0 0 19 9a1 1 0 0 0-.365-.77 1 1 0 0 0-.89-.197M12 12H6v7h6zm0-2V6c0-.55-.45-1-1-1H7c-.55 0-1 .45-1 1v4z" clip-rule="evenodd"/></svg>