<svg xmlns="http://www.w3.org/2000/svg" width="24" height="24" fill="none"><path fill="#6B6F80" d="M12.025 16q-.6 0-1.012-.425a1.22 1.22 0 0 1-.363-1q.075-1.05.5-1.825.426-.775 1.35-1.6 1.026-.9 1.562-1.563a2.33 2.33 0 0 0 .538-1.512q0-1.025-.687-1.7T12 5.7q-.8 0-1.362.337-.563.338-.913.838t-.862.675a1.35 1.35 0 0 1-.988-.025 1.4 1.4 0 0 1-.787-.825q-.213-.575.087-1.075.726-1.125 1.95-1.875Q10.35 3 12 3q2.625 0 4.038 1.463 1.412 1.462 1.412 3.512 0 1.25-.537 2.138t-1.688 2.012q-.849.8-1.2 1.3a2.95 2.95 0 0 0-.475 1.15 1.74 1.74 0 0 1-.525 1.025q-.424.4-1 .4M12 22q-.825 0-1.412-.587A1.93 1.93 0 0 1 10 20q0-.825.588-1.413A1.93 1.93 0 0 1 12 18q.825 0 1.413.587Q14 19.175 14 20t-.587 1.413A1.93 1.93 0 0 1 12 22"/></svg>