<svg xmlns="http://www.w3.org/2000/svg" width="24" height="24" fill="none"><path fill="#6B6F80" d="M12 17a.97.97 0 0 0 .713-.288A.97.97 0 0 0 13 16v-4.025a.93.93 0 0 0-.287-.7A1 1 0 0 0 12 11a.97.97 0 0 0-.712.287A.97.97 0 0 0 11 12v4.025q0 .425.288.7A1 1 0 0 0 12 17m0-8a.97.97 0 0 0 .713-.288A.97.97 0 0 0 13 8a.97.97 0 0 0-.287-.713A.97.97 0 0 0 12 7a.97.97 0 0 0-.712.287A.97.97 0 0 0 11 8q0 .424.288.712A.97.97 0 0 0 12 9m0 13a9.7 9.7 0 0 1-3.9-.788 10.1 10.1 0 0 1-3.175-2.137q-1.35-1.35-2.137-3.175A9.7 9.7 0 0 1 2 12q0-2.075.788-3.9a10.1 10.1 0 0 1 2.137-3.175q1.35-1.35 3.175-2.138A9.7 9.7 0 0 1 12 2q2.075 0 3.9.787a10.1 10.1 0 0 1 3.175 2.138q1.35 1.35 2.137 3.175A9.7 9.7 0 0 1 22 12a9.7 9.7 0 0 1-.788 3.9 10.1 10.1 0 0 1-2.137 3.175q-1.35 1.35-3.175 2.137A9.7 9.7 0 0 1 12 22"/></svg>