<svg xmlns="http://www.w3.org/2000/svg" width="24" height="24" fill="none"><path fill="#6B6F80" fill-rule="evenodd" d="M18.613 13.186a6.7 6.7 0 0 0 .317-1.213v-.003l.002-.014A.86.86 0 0 0 18.08 11a.84.84 0 0 0-.829.702v.008l-.005.029a6 6 0 0 1-.151.696 4 4 0 0 1-.065.205l1.27 1.27q.176-.351.313-.724M20.45 18.9a.996.996 0 1 1-1.41 1.41l-3.49-3.49-.004.002q-.258.15-.529.279A7 7 0 0 1 13 17.72V20c0 .55-.45 1-1 1s-1-.45-1-1v-2.28c-2.69-.408-4.995-2.366-5.747-4.932a6 6 0 0 1-.186-.84A.857.857 0 0 1 5.92 11c.41 0 .77.3.83.709v.001a5 5 0 0 0 .157.723c.563 1.89 2.198 3.224 4.093 3.575a5.5 5.5 0 0 0 1 .092h.002a5.3 5.3 0 0 0 .998-.096 5.6 5.6 0 0 0 1.307-.422l.003-.002-1.66-1.66h-.003c-.61.13-1.268.12-2.017-.31C9.6 13.02 9 11.89 9 10.7v-.43l-5.29-5.3a.996.996 0 1 1 1.41-1.41z" clip-rule="evenodd"/><path fill="#6B6F80" d="M10.76 4.9c0-.66.54-1.2 1.2-1.2s1.2.54 1.2 1.2l-.01 3.91 1.81 1.79V5c0-1.66-1.34-3-3-3C10.42 2 9.17 3.16 9 4.65l1.76 1.76z"/></svg>