<svg xmlns="http://www.w3.org/2000/svg" width="24" height="24" fill="none"><path fill="#6B6F80" d="M16.19 11c0-2.48-1.51-4.5-4-4.5-.144 0-.282.017-.419.034l-.131.016L10 4.91l.105-.038c.188-.07.383-.141.585-.192V4c0-.83.67-1.5 1.5-1.5s1.5.67 1.5 1.5v.68c2.87.68 4.5 3.25 4.5 6.32v2.1l-2-2zM14 20a2.005 2.005 0 0 1-2 2 1.997 1.997 0 0 1-2-2z"/><path fill="#6B6F80" fill-rule="evenodd" d="M5.41 19c-.89 0-1.33-1.08-.7-1.71L6 16v-5c0-1.268.289-2.426.807-3.424l.003-.006L4 4.76l1.41-1.41 15.98 15.98-1.41 1.41L18.24 19zM8 11c0-.703.117-1.341.322-1.91l7.91 7.91H7.828L8 16.828z" clip-rule="evenodd"/></svg>