<svg xmlns="http://www.w3.org/2000/svg" width="24" height="24" fill="none"><path fill="#6B6F80" d="M12 17a.97.97 0 0 0 .713-.288A.97.97 0 0 0 13 16v-4a.97.97 0 0 0-.287-.713A.97.97 0 0 0 12 11a.97.97 0 0 0-.712.287A.97.97 0 0 0 11 12v4q0 .424.288.712A.97.97 0 0 0 12 17m0-8a.97.97 0 0 0 .713-.288A.97.97 0 0 0 13 8a.97.97 0 0 0-.287-.713A.97.97 0 0 0 12 7a.97.97 0 0 0-.712.287A.97.97 0 0 0 11 8q0 .424.288.712A.97.97 0 0 0 12 9m0 12.925h-.25a.5.5 0 0 1-.225-.05q-3.274-1.025-5.4-4.063Q4 14.775 4 11.1V6.375q0-.625.363-1.125.362-.5.937-.725l6-2.25a2.1 2.1 0 0 1 .7-.125q.35 0 .7.125l6 2.25q.575.225.938.725.362.5.362 1.125V11.1q0 3.675-2.125 6.712t-5.4 4.063q-.125.05-.475.05m0-2.025q2.6-.825 4.3-3.3t1.7-5.5V6.375l-6-2.25-6 2.25V11.1q0 3.025 1.7 5.5t4.3 3.3"/></svg>