<svg xmlns="http://www.w3.org/2000/svg" width="24" height="24" fill="none"><path fill="#6B6F80" fill-rule="evenodd" d="M3.608 6a2 2 0 0 1 2-2H19a2 2 0 0 1 2 2v13.391a2 2 0 0 1-2 2H5.608a2 2 0 0 1-2-2v-.608H2.304a1.304 1.304 0 0 1 0-2.61h1.304V9.218H2.304a1.304 1.304 0 1 1 0-2.608h1.304zM19 19.391H5.608V6H19zm-3.59-6.695c0 .632-.19 1.22-.516 1.71l1.576 1.577a.621.621 0 0 1-.879.878l-1.576-1.576a3.1 3.1 0 0 1-1.711.516c-.632 0-1.22-.19-1.712-.516l-1.576 1.576a.62.62 0 0 1-.878 0 .62.62 0 0 1 0-.878l1.576-1.576a3.1 3.1 0 0 1-.516-1.712c0-.632.19-1.22.516-1.71L8.138 9.407a.621.621 0 1 1 .878-.878l1.576 1.576a3.1 3.1 0 0 1 1.712-.516c.632 0 1.22.19 1.711.516l1.576-1.576a.621.621 0 0 1 .879.878l-1.576 1.576c.325.491.515 1.08.515 1.711m-4.97 0c0 1.027.836 1.863 1.864 1.863a1.866 1.866 0 0 0 1.863-1.864 1.865 1.865 0 0 0-1.863-1.863 1.865 1.865 0 0 0-1.864 1.863" clip-rule="evenodd"/></svg>