<svg xmlns="http://www.w3.org/2000/svg" width="24" height="25" fill="none"><path fill="#6B6F80" d="M18 16.544c-.76 0-1.44.309-1.96.792l-7.13-4.27c.05-.236.09-.473.09-.72s-.04-.483-.09-.72l7.05-4.228c.54.514 1.25.833 2.04.833 1.66 0 3-1.379 3-3.087 0-1.707-1.34-3.086-3-3.086s-3 1.379-3 3.086c0 .247.04.484.09.72l-7.05 4.23A2.94 2.94 0 0 0 6 9.26c-1.66 0-3 1.378-3 3.086s1.34 3.087 3 3.087c.79 0 1.5-.32 2.04-.833l7.12 4.28c-.05.216-.08.442-.08.668 0 1.657 1.31 3.005 2.92 3.005s2.92-1.348 2.92-3.005-1.31-3.004-2.92-3.004m0-12.428c.55 0 1 .463 1 1.028 0 .566-.45 1.03-1 1.03s-1-.464-1-1.03c0-.565.45-1.028 1-1.028m-12 9.26c-.55 0-1-.464-1-1.03s.45-1.028 1-1.028 1 .463 1 1.028c0 .566-.45 1.03-1 1.03m12 7.222c-.55 0-1-.463-1-1.03 0-.565.45-1.028 1-1.028s1 .463 1 1.029-.45 1.029-1 1.029"/></svg>