<svg xmlns="http://www.w3.org/2000/svg" width="24" height="24" fill="none"><path fill="#6B6F80" d="M18.947 9.2c.664 0 1.2.536 1.2 1.2v10.4c0 .664-.536 1.2-1.2 1.2s-1.2-.536-1.2-1.2V10.4c0-.664.536-1.2 1.2-1.2m-9.6 8c.664 0 1.2.536 1.2 1.2v2.4c0 .664-.536 1.2-1.2 1.2s-1.2-.536-1.2-1.2v-2.4c0-.664.536-1.2 1.2-1.2m4.8-4c.664 0 1.2.536 1.2 1.2v6.4c0 .664-.536 1.2-1.2 1.2s-1.2-.536-1.2-1.2v-6.4c0-.664.536-1.2 1.2-1.2M5.288 20.4c0-.664-.536-1.2-1.2-1.2s-1.2.536-1.2 1.2v.4c0 .664.536 1.2 1.2 1.2s1.2-.536 1.2-1.2zM16.831 5.313 2.888 14.5a.8.8 0 0 0-.133 1.123.8.8 0 0 0 1.123.133L17.822 6.57l.887 1.124a.396.396 0 0 0 .707-.201l.364-3.13a.41.41 0 0 0-.351-.446L16.3 3.541c-.354-.047-.58.365-.361.641z"/></svg>