<svg xmlns="http://www.w3.org/2000/svg" width="24" height="24" fill="none"><path fill="#6B6F80" fill-rule="evenodd" d="M7.94 1.5c-.836 0-1.437.667-1.437 1.438v.026c-.001.132-.004.432.162.68L8.294 6h7.409L17.3 3.648l.002-.003c.166-.25.163-.546.162-.65v-.018c0-.817-.6-1.417-1.36-1.476l-.019-.001zM2.403 13.353C3.222 11.378 4.768 9.088 7.661 7h8.68c2.871 2.081 4.407 4.377 5.222 6.357.932 2.264.91 4.088.902 4.648v.089c0 2.506-2.183 4.406-4.759 4.406H6.261c-2.575 0-4.758-1.9-4.758-4.406v-.097c-.01-.57-.036-2.387.9-4.644m10.735.795-1.914-.546c-.235-.079-.352-.313-.352-.547 0-.313.195-.547.469-.547h1.21c.196 0 .391.039.548.156.039.04.117.04.195.04a.55.55 0 0 0 .234-.079l.508-.469c.04-.078.078-.156.078-.234 0-.117-.039-.235-.117-.274-.39-.273-.82-.468-1.328-.468v-.703c0-.196-.156-.313-.352-.313v-.039h-.664a.35.35 0 0 0-.351.352v.703c-1.016 0-1.797.86-1.797 1.875 0 .86.547 1.601 1.328 1.836l1.914.547c.234.078.352.312.352.546 0 .313-.196.547-.47.547h-1.21c-.195 0-.39-.039-.547-.156-.039-.04-.117-.04-.195-.04a.56.56 0 0 0-.235.08l-.507.468a.56.56 0 0 0-.079.234c0 .117.04.235.118.274.39.273.82.468 1.328.468v.703c0 .196.156.313.351.313h.664c.196 0 .352-.117.352-.312v-.704c1.016 0 1.797-.859 1.797-1.875.039-.859-.547-1.601-1.328-1.836" clip-rule="evenodd"/></svg>