<svg xmlns="http://www.w3.org/2000/svg" width="24" height="24" fill="none"><path fill="#6B6F80" d="M11.835 10.95q.63 0 1.08-.369.458-.37.458-1.06 0-.525-.362-.902-.363-.383-.978-.383-.417 0-.69.117a1.1 1.1 0 0 0-.424.307 2.4 2.4 0 0 0-.3.492q-.138.3-.254.568a.48.48 0 0 1-.246.225 1 1 0 0 1-.41.082.73.73 0 0 1-.506-.218q-.225-.225-.225-.595 0-.355.211-.745.219-.397.63-.752a3.2 3.2 0 0 1 1.032-.568 4.1 4.1 0 0 1 1.374-.218q.663 0 1.21.184.546.178.95.52t.608.793q.205.45.205.97 0 .684-.3 1.176-.296.486-.848.95a3.7 3.7 0 0 1 .895.657q.37.37.554.82.185.444.185.964 0 .622-.253 1.203a3.1 3.1 0 0 1-.732 1.039q-.484.45-1.155.711a4.1 4.1 0 0 1-1.47.253 3.53 3.53 0 0 1-2.543-1.026 3.5 3.5 0 0 1-.635-.915q-.212-.473-.212-.78 0-.396.253-.635a.9.9 0 0 1 .642-.247q.191 0 .37.117a.52.52 0 0 1 .232.266q.356.95.759 1.415.41.459 1.148.458.424 0 .813-.205.397-.211.65-.622.26-.41.26-.95 0-.8-.438-1.251-.437-.458-1.217-.458-.135 0-.424.027a5 5 0 0 1-.369.028q-.376 0-.58-.185-.206-.192-.206-.526 0-.33.246-.527.246-.204.732-.205z"/><path fill="#6B6F80" fill-rule="evenodd" d="M12 20a8 8 0 1 0 0-16 8 8 0 0 0 0 16m0 2c5.523 0 10-4.477 10-10S17.523 2 12 2 2 6.477 2 12s4.477 10 10 10" clip-rule="evenodd"/></svg>