<svg xmlns="http://www.w3.org/2000/svg" width="24" height="24" fill="none"><path fill="#6B6F80" fill-rule="evenodd" d="M12 22c5.523 0 10-4.477 10-10S17.523 2 12 2 2 6.477 2 12s4.477 10 10 10m.915-11.419q-.45.37-1.08.37h-.28q-.486 0-.732.204a.64.64 0 0 0-.246.527q0 .334.205.526.205.185.581.185.082 0 .37-.028a5 5 0 0 1 .423-.027q.78 0 1.217.458.438.451.438 1.25 0 .54-.26.951a1.7 1.7 0 0 1-1.463.827q-.738 0-1.148-.458-.404-.465-.76-1.415a.52.52 0 0 0-.232-.266.67.67 0 0 0-.369-.117.9.9 0 0 0-.642.247q-.254.238-.253.635 0 .307.212.78a3.5 3.5 0 0 0 .635.915q.424.438 1.073.732.65.294 1.47.294.807 0 1.47-.253.67-.26 1.155-.711.486-.458.732-1.039.252-.58.253-1.203 0-.52-.185-.964a2.5 2.5 0 0 0-.554-.82 3.7 3.7 0 0 0-.895-.657q.553-.465.848-.95.3-.492.3-1.176 0-.52-.205-.97a2.3 2.3 0 0 0-.608-.793 2.8 2.8 0 0 0-.95-.52 3.8 3.8 0 0 0-1.21-.184 4.1 4.1 0 0 0-1.374.218q-.616.212-1.033.568a2.8 2.8 0 0 0-.629.752q-.21.39-.211.745 0 .369.225.595a.73.73 0 0 0 .506.218 1 1 0 0 0 .41-.082.48.48 0 0 0 .246-.225q.117-.267.253-.568.144-.3.3-.492a1.1 1.1 0 0 1 .425-.307q.273-.117.69-.117.615 0 .978.383.362.376.362.902 0 .69-.458 1.06" clip-rule="evenodd"/></svg>