<svg xmlns="http://www.w3.org/2000/svg" width="24" height="24" fill="none"><path fill="#6B6F80" d="M2.7 17.3a.93.93 0 0 1-.274-.688q0-.412.275-.712l6-6.05q.15-.125.325-.2a.9.9 0 0 1 .375-.075q.2 0 .388.075.186.075.312.2l3.3 3.3L18.6 8H17a.97.97 0 0 1-.712-.287A.97.97 0 0 1 16 7q0-.425.288-.713A.97.97 0 0 1 17 6h4q.424 0 .712.287Q22 6.575 22 7v4q0 .424-.288.712A.97.97 0 0 1 21 12a.97.97 0 0 1-.712-.288A.97.97 0 0 1 20 11V9.4l-5.9 5.9q-.15.15-.325.212a1.1 1.1 0 0 1-.375.063q-.201 0-.375-.063a.9.9 0 0 1-.325-.212L9.4 12l-5.325 5.325a.92.92 0 0 1-.675.275.96.96 0 0 1-.7-.3"/></svg>