<svg xmlns="http://www.w3.org/2000/svg" width="24" height="24" fill="none"><path fill="#6B6F80" fill-rule="evenodd" d="M12 22c5.523 0 10-4.477 10-10S17.523 2 12 2 2 6.477 2 12s4.477 10 10 10m2.693-6.613h-3.568q.171-.26.335-.445.383-.465 1.408-1.305a49 49 0 0 0 1.47-1.23q.438-.397.854-1.088.424-.697.424-1.545 0-.54-.205-1.039a2.73 2.73 0 0 0-1.401-1.49q-.738-.328-1.784-.328-.87 0-1.518.26a3.1 3.1 0 0 0-1.066.67 2.85 2.85 0 0 0-.63.93q-.21.512-.211.984 0 .39.225.615.226.226.568.226.39 0 .588-.247.204-.245.362-.704.165-.458.232-.56.513-.786 1.409-.786.423 0 .779.191.361.192.567.54.212.342.212.78 0 .402-.198.827a3.1 3.1 0 0 1-.568.82 6 6 0 0 1-.93.793q-.313.211-1.045.889-.732.67-1.64 1.613a2.3 2.3 0 0 0-.404.642q-.185.405-.185.65 0 .382.288.67.287.28.8.28h5.03q.452 0 .67-.232a.78.78 0 0 0 .226-.568.71.71 0 0 0-.28-.594q-.28-.22-.814-.22" clip-rule="evenodd"/></svg>