<svg xmlns="http://www.w3.org/2000/svg" width="24" height="24" fill="none"><path fill="#6B6F80" d="M11.125 15.387h3.568q.534 0 .814.218.28.22.28.595a.78.78 0 0 1-.226.568q-.218.232-.67.232h-5.03q-.513 0-.8-.28a.92.92 0 0 1-.288-.67q0-.245.185-.65a2.3 2.3 0 0 1 .403-.642 37 37 0 0 1 1.641-1.613q.731-.678 1.046-.89.56-.396.93-.792.376-.403.567-.82.198-.425.198-.828 0-.437-.212-.779a1.4 1.4 0 0 0-.567-.54 1.6 1.6 0 0 0-.78-.191q-.895 0-1.408.786-.068.102-.232.56-.158.458-.362.704-.199.247-.588.247a.77.77 0 0 1-.568-.226q-.225-.225-.225-.615 0-.472.212-.985.211-.511.629-.93a3.1 3.1 0 0 1 1.066-.67q.65-.259 1.518-.259 1.046 0 1.784.328.479.218.84.602.363.382.561.888.205.5.205 1.04 0 .847-.424 1.544-.417.69-.854 1.087-.438.39-1.47 1.23-1.025.842-1.408 1.306-.165.184-.335.445"/><path fill="#6B6F80" fill-rule="evenodd" d="M12 20a8 8 0 1 0 0-16 8 8 0 0 0 0 16m0 2c5.523 0 10-4.477 10-10S17.523 2 12 2 2 6.477 2 12s4.477 10 10 10" clip-rule="evenodd"/></svg>