<svg xmlns="http://www.w3.org/2000/svg" width="24" height="24" fill="none"><path fill="#6B6F80" d="M2.726 21a.91.91 0 0 1-.85-.5.98.98 0 0 1 0-1l9.25-16Q11.4 3 12 3t.875.5l9.25 16a.98.98 0 0 1 0 1 .91.91 0 0 1-.85.5zM12 10a.97.97 0 0 0-.712.287A.97.97 0 0 0 11 11v3q0 .424.288.712A.97.97 0 0 0 12 15a.97.97 0 0 0 .713-.288A.97.97 0 0 0 13 14v-3a.97.97 0 0 0-.287-.713A.97.97 0 0 0 12 10m0 8a.97.97 0 0 0 .713-.288A.97.97 0 0 0 13 17a.97.97 0 0 0-.287-.712A.97.97 0 0 0 12 16a.97.97 0 0 0-.712.288A.97.97 0 0 0 11 17q0 .424.288.712A.97.97 0 0 0 12 18m-7.55 1h15.1L12 6z"/></svg>