<svg xmlns="http://www.w3.org/2000/svg" width="24" height="24" fill="none"><path fill="#6B6F80" d="M5.3 14.275q-.45-.45-.426-1.075.026-.626.5-.975 1.375-1.05 3.063-1.638A10.8 10.8 0 0 1 12 10q1.9 0 3.588.6t3.062 1.675q.476.35.488.963A1.4 1.4 0 0 1 18.7 14.3q-.425.425-1.037.438a1.94 1.94 0 0 1-1.138-.338 7.9 7.9 0 0 0-2.112-1.037A7.9 7.9 0 0 0 12 13q-1.275 0-2.412.375A8.3 8.3 0 0 0 7.5 14.4q-.55.375-1.162.338a1.56 1.56 0 0 1-1.038-.463M12 20q-.85 0-1.426-.575Q10 18.851 10 18q0-.85.575-1.425Q11.15 16 12 16t1.425.575Q14 17.149 14 18q0 .85-.575 1.425T12 20"/></svg>