<svg xmlns="http://www.w3.org/2000/svg" width="24" height="24" fill="none"><path fill="#6B6F80" d="M8.919 3.918c0-.55-.45-1-1-1h-4c-.55 0-1 .45-1 1v4c0 .55.45 1 1 1s1-.45 1-1v-1.59l2.38 2.38a.996.996 0 1 0 1.41-1.41l-2.38-2.38h1.59c.55 0 1-.45 1-1M20.084 8.917c.55 0 1-.45 1-1v-4c0-.55-.45-1-1-1h-4c-.55 0-1 .45-1 1s.45 1 1 1h1.59l-2.38 2.38a.996.996 0 1 0 1.41 1.41l2.38-2.38v1.59c0 .55.45 1 1 1M15.083 20.083c0 .55.45 1 1 1h4c.55 0 1-.45 1-1v-4c0-.55-.45-1-1-1s-1 .45-1 1v1.59l-2.38-2.38a.996.996 0 1 0-1.41 1.41l2.38 2.38h-1.59c-.55 0-1 .45-1 1M3.918 15.083c-.55 0-1 .45-1 1v4c0 .55.45 1 1 1h4c.55 0 1-.45 1-1s-.45-1-1-1h-1.59l2.38-2.38a.996.996 0 1 0-1.41-1.41l-2.38 2.38v-1.59c0-.55-.45-1-1-1"/></svg>